<?xml version="1.0" encoding="UTF-8" standalone="no"?>
<!-- Created with Inkscape (http://www.inkscape.org/) -->
<svg
   xmlns:svg="http://www.w3.org/2000/svg"
   xmlns="http://www.w3.org/2000/svg"
   version="1.0"
   width="111.97169"
   height="73.792053"
   id="svg3342">
  <defs
     id="defs3345" />
  <g
     transform="translate(-31.948196,42.121072)"
     id="g3374">
    <path
       d="M 50.651568,29.604436 L 40.834561,-26.373383 C 40.837883,-26.38721 77.037546,-34.546515 81.146946,-41.621072 L 93.862058,-41.568855 C 94.556641,-40.928624 104.40277,-32.534657 133.99167,-25.537894 L 124.80129,30.022181"
       id="path2470"
       style="fill:none;fill-rule:evenodd;stroke:#000000;stroke-width:1px;stroke-linecap:butt;stroke-linejoin:miter;stroke-opacity:1" />
    <path
       d="M 90.75508,31.066543 L 98.274488,-23.449169 L 109.5536,-9.9768951 L 120.2061,-13.841035 L 102.03419,31.170979 M 72.47874,30.126617 L 55.037889,-14.885397 L 65.951475,-9.8202403 L 76.865061,-23.031423 L 84.802215,28.455637"
       id="path2472"
       style="fill:none;fill-rule:evenodd;stroke:#000000;stroke-width:1px;stroke-linecap:butt;stroke-linejoin:miter;stroke-opacity:1" />
    <path
       d="M 116.55082,-12.378928 L 106.70338,-34.172424"
       id="path2474"
       style="fill:none;fill-rule:evenodd;stroke:#000000;stroke-width:1px;stroke-linecap:butt;stroke-linejoin:miter;stroke-opacity:1" />
    <path
       d="M 59.496295,-12.79667 L 68.847872,-34.439663"
       id="path2476"
       style="fill:none;fill-rule:evenodd;stroke:#000000;stroke-width:1px;stroke-linecap:butt;stroke-linejoin:miter;stroke-opacity:1" />
    <path
       d="M 32.44824,30.110905 C 32.44824,30.110905 32.356858,-22.968809 40.502884,-26.310768"
       id="path2478"
       style="fill:none;fill-rule:evenodd;stroke:#000000;stroke-width:1px;stroke-linecap:butt;stroke-linejoin:miter;stroke-opacity:1" />
    <path
       d="M 143.39095,29.395562 C 143.50368,29.323828 143.73621,-24.755111 134.35679,-25.436331"
       id="path2480"
       style="fill:none;fill-rule:evenodd;stroke:#000000;stroke-width:1px;stroke-linecap:butt;stroke-linejoin:miter;stroke-opacity:1" />
    <rect
       width="14.107484"
       height="3.594399"
       x="106.96381"
       y="23.877441"
       transform="matrix(0.9976155,-6.9016464e-2,6.0331234e-2,0.9981784,0,0)"
       id="rect2482"
       style="opacity:1;fill:none;fill-opacity:1;stroke:#000000;stroke-width:0.97166806;stroke-miterlimit:4;stroke-dasharray:none;stroke-opacity:1" />
    <path
       d="M 98.274488,-22.822551 L 98.48336,-38.592422"
       id="path3254"
       style="fill:none;fill-rule:evenodd;stroke:#000000;stroke-width:1px;stroke-linecap:butt;stroke-linejoin:miter;stroke-opacity:1" />
    <path
       d="M 77.074742,-21.537258 L 76.551752,-38.070241"
       id="path3256"
       style="fill:none;fill-rule:evenodd;stroke:#000000;stroke-width:1px;stroke-linecap:butt;stroke-linejoin:miter;stroke-opacity:1" />
  </g>
  <path
     d="M 44.883015,7.532058 C 44.883015,7.532058 48.883767,6.768585 50.185465,4.128408 L 61.633131,4.075785 C 61.633131,4.075785 63.408547,6.582255 66.541634,7.417744"
     id="path3385"
     style="fill:none;fill-rule:evenodd;stroke:#000000;stroke-width:1px;stroke-linecap:butt;stroke-linejoin:miter;stroke-opacity:1" />
</svg>
